<?xml version="1.0" standalone="no"?>
<!DOCTYPE svg PUBLIC "-//W3C//DTD SVG 20010904//EN"
 "http://www.w3.org/TR/2001/REC-SVG-20010904/DTD/svg10.dtd">
<svg version="1.0" xmlns="http://www.w3.org/2000/svg"
 width="2409.000000pt" height="995.000000pt" viewBox="0 0 2409.000000 995.000000"
 preserveAspectRatio="xMidYMid meet">

<g transform="translate(0.000000,995.000000) scale(0.100000,-0.100000)"
fill="#000000" stroke="none">
<path d="M19640 9943 c-2121 -37 -4282 -393 -5935 -976 -1969 -695 -3384
-1571 -4300 -2662 -612 -729 -998 -1572 -1140 -2485 -23 -143 -31 -550 -16
-717 23 -246 70 -461 158 -726 30 -92 54 -169 52 -171 -2 -1 -51 1 -109 5
-444 30 -1678 36 -2025 10 -1975 -152 -4090 -721 -6152 -1656 -97 -44 -173
-84 -173 -92 0 -14 -4 -15 230 92 1909 872 4089 1466 5945 1620 528 43 1661
43 2221 -1 l81 -6 43 -97 c146 -333 374 -688 632 -986 132 -152 389 -400 538
-520 328 -263 681 -456 980 -536 67 -18 113 -23 215 -23 120 -1 134 1 185 25
191 90 218 290 91 678 -130 396 -367 709 -715 942 -421 283 -1016 456 -1821
529 -71 7 -131 13 -133 15 -1 1 -23 60 -48 131 -194 548 -234 1127 -118 1698
242 1191 899 2230 1959 3099 916 751 2207 1415 3710 1907 1320 432 2938 726
4590 834 540 36 722 41 1480 41 874 0 1240 -14 1965 -76 620 -52 1445 -158
1940 -248 59 -11 109 -15 114 -10 14 12 5 14 -264 58 -1396 228 -2786 329
-4180 304z m-10945 -7783 c1059 -97 1793 -412 2184 -940 157 -212 280 -502
327 -775 36 -205 -23 -341 -170 -392 -79 -28 -244 -23 -370 11 -629 169 -1398
805 -1864 1541 -112 178 -292 525 -292 564 0 5 15 8 33 6 17 -3 86 -9 152 -15z"/>
</g>
</svg>
