<?xml version="1.0" standalone="no"?>
<!DOCTYPE svg PUBLIC "-//W3C//DTD SVG 20010904//EN"
 "http://www.w3.org/TR/2001/REC-SVG-20010904/DTD/svg10.dtd">
<svg version="1.0" xmlns="http://www.w3.org/2000/svg"
 width="1713.000000pt" height="684.000000pt" viewBox="0 0 1713.000000 684.000000"
 preserveAspectRatio="xMidYMid meet">

<g transform="translate(0.000000,684.000000) scale(0.100000,-0.100000)"
fill="#005893" stroke="none">
<path d="M9301 6825 c-180 -51 -205 -219 -80 -540 217 -556 758 -853 1727
-949 79 -7 145 -16 149 -19 3 -3 25 -63 48 -134 162 -479 151 -935 -36 -1493
-436 -1306 -1704 -2318 -3764 -3005 -929 -310 -2039 -521 -3205 -610 -413 -31
-546 -36 -1075 -42 -852 -9 -1525 28 -2315 128 -230 29 -678 95 -712 105 -20
6 -25 -14 -5 -21 26 -9 473 -76 697 -104 1511 -193 3006 -183 4480 29 767 110
1466 270 2110 482 1581 520 2726 1250 3356 2139 209 295 348 568 459 904 187
563 194 1046 21 1529 l-35 98 57 -6 c134 -13 1252 -18 1433 -7 1270 82 2781
457 4139 1028 307 129 380 164 380 178 0 8 -65 -16 -162 -60 -1180 -523 -2544
-910 -3763 -1065 -475 -60 -572 -65 -1245 -63 -338 0 -667 5 -730 10 l-115 8
-65 130 c-169 335 -403 633 -696 885 -385 332 -829 527 -1053 465z m321 -54
c430 -140 935 -557 1248 -1032 80 -121 216 -376 206 -387 -9 -8 -305 25 -471
53 -680 115 -1107 370 -1315 785 -84 167 -136 373 -119 463 5 23 8 45 9 49 1
18 59 73 95 90 63 30 220 20 347 -21z"/>
</g>
</svg>
